<?xml version="1.0" encoding="utf-8"?>
<!-- Generator: Adobe Illustrator 23.0.2, SVG Export Plug-In . SVG Version: 6.00 Build 0)  -->
<svg version="1.1" id="Calque_1" xmlns="http://www.w3.org/2000/svg" xmlns:xlink="http://www.w3.org/1999/xlink" x="0px" y="0px"
	 viewBox="0 0 2570 1000" style="enable-background:new 0 0 2570 1000;" xml:space="preserve">
<style type="text/css">
	.st0{fill:#09B0B9;}
	.st1{fill:#FEFEFE;}
</style>
<g>
	<path class="st0" d="M1648.1,0c6.8,1.3,13.6,2.6,20.3,4c6,1.3,11.9,3.1,17.6,5.5c12.9,5.5,17.4,13.7,13.5,27.1
		c-2,7-1.7,12.7,1,19.4c4.2,10.3,3,21.3,1.3,32.1c-2.9,18.1-3.8,36.4-5.8,54.6c-2.4,21.7-4.5,43.4-6.7,65.1c-0.1,0.5-0.1,1-0.2,1.5
		c-0.7,6.7-0.7,6.6,6.2,6.8c28.2,0.7,56.3,2.4,83.2,11.9c16,5.7,30.1,14.1,40.9,27.5c2.4,2.9,2.5,5.1,0.2,7.8
		c-8.6,10.1-19.3,17.9-29.5,26.2c-1.2,0.9-2.5,0.7-3.8,0.8c-33.9,2.4-67.5,7.5-101.3,10.9c-4.2,0.4-5.6,2-6.1,6.3
		c-4,33.7-8.3,67.4-12.5,101.1c-4.1,33-8.2,66.1-12.4,99.1c-4.5,35-9,70-13.6,105c-4.5,34.3-8.9,68.7-13.5,103
		c-5.1,37.9-10.3,75.9-15.6,113.8c-3.6,26.2-7.5,52.4-11.2,78.6c-0.7,4.7-2,9.1-4.3,13.2c-4.8,8.8-11.5,14.8-22.3,15.2
		c-9.4,0.4-18.2-0.5-26.5-5.2c-15.2-8.6-31.9-13.4-48.3-18.8c-14.7-4.8-21.6-14.8-23.6-29.6c-3.8-28.2-3.5-56.5-2.6-84.8
		c0.7-20.6,2.1-41.2,3.8-62.3c-2.5,1.1-3.4,2.9-4.5,4.4c-28.5,35.8-58.9,69.8-93.4,100c-24.6,21.6-50.8,41-81,54.4
		c-20.4,9-41.5,14.5-64,12.4c-27.6-2.6-49.5-15.9-66.5-37.2c-7.4-9.3-9.3-21.2-10.9-32.8c-3.7-27.4-2.2-54.9-0.3-82.3
		c3.2-45.9,10-91.4,13-137.3c0.7-10.5,1.1-21-0.6-31.4c-0.4-2.3-0.8-4.6-1.5-6.8c-0.8-2.5-1.7-5.6-4.5-6.2c-2.7-0.6-3.5,2.6-4.9,4.2
		c-57.4,66-99.5,141.4-134.1,221.2c-7.7,17.7-15.2,35.5-23,53.1c-4.2,9.5-9.3,18.4-16.9,25.7c-10.5,10-22.8,12-35.8,5.6
		c-2.4-1.2-5-2.2-6.9-4c-11.5-10.7-26-12.7-40.5-14.9c-4.9-0.8-9.9-1.4-14.6-3.1c-6.8-2.4-10.6-7-11.4-14.3
		c-1.8-17.2,0-34.3,0.6-51.4c0.1-3.4,0.4-6.9,0.7-11.5c-7.6,9.5-14.3,18.1-21.3,26.5c-23,27.4-47.8,53-78.4,72.1
		c-24.5,15.3-50.8,24.8-80.1,23.8c-24.5-0.8-46.9-9.2-68.3-20.4c-40.9-21.4-62-57-71-100.9c-6.9-33.5-5.7-67.3-1.8-101
		c5.1-43.4,13.9-86,27.8-127.5c7.9-23.4,17-46.2,31.3-66.6c2.1-3,4.5-5.8,6.9-8.6c9.9-11.5,22-17.4,37.6-15.1
		c11.2,1.7,22.7,0.5,33.8,3.1c23.6,5.5,42.1,18,52.7,40.4c5,10.6,4.7,21.3,0.9,32.5c-2.7,7.8-3.2,16.3-4.8,24.4
		c-7.9,38.5-16,76.9-23.7,115.4c-6.9,34.4-13.2,69-16.2,104c-1.3,14.4-2.1,28.9,0.6,43.3c3.1,16,11.7,20.2,26.3,12.7
		c11.2-5.8,20.5-14.2,29.4-23c28.4-28.1,52.6-59.8,76.3-91.7c17.3-23.3,33.6-47.3,50.4-70.8c5.5-7.6,6.2-15.9,7.4-24.3
		c6.1-44.5,13.2-88.9,22.3-132.9c4.3-20.7,16.3-31.1,39-34.9c8.4-1.4,16.8-2.6,25.1-4.1c7.2-1.3,13.9-3.4,20.3-7.7
		c12.4-8.4,25.5-6.9,37.5,1c13,8.5,20.2,20.6,17.5,36.5c-9.6,56.9-21,113.5-32.2,170.2c-0.3,1.6-0.5,3.2,0.2,5.2
		c1.2-1.9,2.4-3.8,3.5-5.7c17.9-30.3,35.2-60.8,56.4-89c14-18.6,29.2-35.9,47-50.9c22.6-19,48.4-28,77.9-26.3
		c21.4,1.2,42.4,4.4,62.3,12.7c4.3,1.8,8.5,3.9,12.6,6c20.1,10.1,28.4,28,32.5,48.7c5.9,29.4,5.3,59,3.4,88.6
		c-2.7,43.1-9.4,85.7-13.1,128.7c-1,11.4-2,23,0.5,34.4c1.6,7.5,3.9,8.6,10.7,4.6c10.1-6,18.3-14.4,26.5-22.8
		c39.1-40.4,73.8-84.6,108.1-129c10.8-14,21-28.4,32.1-42.2c5.8-7.1,8-14.7,8.9-23.6c4.4-44.2,9.1-88.4,13.8-132.7
		c4.1-38.4,8.2-76.8,12.3-115.2c1.7-15.9,3.3-31.8,5.4-47.6c0.5-4.1-0.5-4.6-4.2-4.8c-22.4-1.5-43.3-7.7-60.3-23.3
		c-12.4-11.4-18.5-25.7-19.3-42.5c-0.3-5.9,2.3-9,7.2-11.1c9.1-3.9,18.8-5.5,28.5-6.9c17.8-2.6,35.8-3.8,53.7-4.8
		c4.2-0.2,5.2-1.9,5.6-5.5c3.1-27.5,7.7-54.7,13.2-81.8c5.5-27.2,12.3-54.2,20.3-80.8c6.6-21.9,21.8-33.8,43.2-39.2
		c4.8-1.2,9.7-2,14.5-3C1632.1,0,1640.1,0,1648.1,0z M1019.4,666.4l0.2,0.2l0-0.3L1019.4,666.4z"/>
	<path class="st0" d="M2342.1,1000c-6.9-4-10.4-10.5-13.2-17.5c-6.6-16.8-9.1-34.4-10.8-52.1c-2.9-30.3-2.5-60.6-0.2-90.8
		c0.2-2.3,0-4.6,0-8c-2,2.2-3.4,3.9-4.9,5.5c-21.6,24.7-45.3,47-73.9,63.7c-13.6,7.9-27.9,14.1-43.7,16.3c-28.8,4-51-7.3-67.7-30.4
		c-14.8-20.6-22-44.2-26.7-68.7c-2.2-11.5-3.7-23-4.3-34.7c-0.1-1.9-0.4-3.9-0.8-6.6c-6.1,6.5-11.5,12.5-17.2,18.3
		c-40.4,41.3-86.9,73.3-141.3,93.5c-32,11.9-64.9,18.4-99.3,16.7c-34.9-1.7-63.3-16.2-86.3-42.2c-23.6-26.6-36-58.3-42-92.9
		c-8.3-48-0.5-93.8,18.7-138c23.9-55.1,58.5-102.2,106.5-138.8c28.2-21.5,59.4-36.6,94.9-41.8c4-0.6,7.9-0.9,11.9-1.4
		c23.3-3,39.6,8.9,53.3,25.5c20.5,25,34.1,53.4,37.4,85.7c3.3,32.7-5.1,63.2-22.9,90.8c-27.1,42.1-66.5,64-115.8,68.9
		c-24.7,2.4-48.9-0.5-72.8-6.3c-3.6-0.9-4.6-0.5-4.3,3.4c0.9,16.2,4.4,31.7,12.9,45.6c11.9,19.6,29.9,30,52.1,33.1
		c36,5.1,69.4-3.2,100.8-20.9c30.1-17,54.8-40.6,78.2-65.6c15.5-16.6,30-34,44.3-51.6c1.9-2.4,3.2-4.9,4.1-7.8
		c15.6-53.6,40.1-102.5,76.3-145.2c39.7-46.8,88.2-80.2,148.4-95.2c10.5-2.6,21.1-4.6,31.9-5.6c3.1-0.3,4.1-1.4,4.5-4.5
		c8.4-58,16.3-116,26.9-173.6c7.6-41.7,16.3-83.3,26.3-124.5c3.8-15.5,16.2-22,30-26.3c2.7-0.8,5.7-1.6,8.3-1.2
		c7.5,1.3,13.1-2.1,19.1-6c16.2-10.5,34.1-16.8,53.6-16.7c23,0.1,35.9,13.3,35.5,36.4c-0.3,18.2-4.3,36-7.3,53.9
		c-8.2,48.1-16.7,96.1-24.6,144.2c-7.5,45.1-14.7,90.3-21.6,135.6c-6.5,42.3-12.5,84.6-18.4,127c-5.5,39.1-10.8,78.2-15.6,117.3
		c-4.8,39-9.1,78-13.4,117.1c-4.4,39.6-7.9,79.2-10.5,118.9c-1.3,19.1-2,38.3-1.4,57.4c0.2,5.7,0.3,11.3-1.1,16.9
		c-1.6,6.2-4.9,8.8-11.3,9.2c-17.3,1.3-34.2,5.5-51.2,8.2c-11.2,1.8-22.3,3.9-33.6,4.8c-0.9,0.1-1.9,0.5-2.8,0.8
		C2352.1,1000,2347.1,1000,2342.1,1000z M2352.1,530.9c-6.6,1.8-12.1,4.1-17.5,6.5c-33.3,15.2-58.4,39.8-79.2,69.1
		c-25.9,36.5-43.2,77.1-55.2,120c-8.5,30.4-14.5,61.2-14.1,92.9c0.1,7.8,0.7,15.7,3.9,23c2.9,6.8,6.8,8,13,4
		c11-7,21.1-15.2,30.3-24.4c27-27.2,46.1-59.6,61.9-94.2c20.2-44.4,33.9-90.9,45-138.2C2344.6,570.3,2348.6,551,2352.1,530.9z
		 M1962,521.2c0.2-11.3,0.2-11.4-8.4-11c-11,0.4-21.3,3.2-31.2,8c-19.2,9.4-34.6,23.5-48,39.8c-22.7,27.6-38.5,58.9-48.8,93
		c-0.8,2.5-1,3.6,2.4,3.2c27.3-3,53.3-10.1,76.3-25.5C1943.5,602.6,1959.3,564,1962,521.2z"/>
	<path class="st0" d="M255.6,822.6c5.9-10.3,10.8-20.7,15.5-31.2c22-50,38.3-102.1,54-154.4c27.8-92.9,52-186.8,80.1-279.6
		c17.7-58.4,36.2-116.6,60.8-172.6c10.7-24.4,22.8-48.1,38-70.1c8.3-12,18.6-20.3,33.5-21.9c4-0.4,7.5-2.2,10.7-4.9
		c11.2-9.2,22.5-18.3,34.7-26.2c3.1-2,6.2-3.9,9.5-5.5c3.9-1.8,8.1-3,11.7,0.3c3.7,3.4,4,7.7,2.5,12.4c-3.9,12.4-7.9,24.7-11.4,37.2
		c-18.5,66.5-34.6,133.6-50.2,200.8c-21.8,93.8-46.6,186.8-70.3,280.2c-12.6,49.6-25.6,99.2-42.4,147.6
		c-14.5,41.6-31.5,82-55.2,119.3c-27.4,43-61.8,78.2-108.5,100.4c-45.5,21.6-92.5,26.1-141,13.5c-36-9.4-57.5-32.5-64.4-69.5
		c-8.4-45.3-16.8-90.6-23.6-136.2c-5.8-38.7-11-77.4-15.5-116.3c-4.4-38.2-8.3-76.5-11.5-114.8c-2.7-32.2-4.8-64.4-6.6-96.7
		C1.1,349.9,0.2,265.2,0,180.6c-0.1-38.8,16.6-65.8,49.5-83.4c42.8-22.9,88.1-27.8,134.9-14.5c29,8.2,44.6,28.3,48.5,57.7
		c4.6,34,4,68.1,0.4,102.2c-2.3,21.7-0.5,43.3,0,64.9c0.7,29.5,1.9,58.9,2.6,88.4c1.9,80.1,3.4,160.3,5.4,240.4
		c0.9,35.8,2.2,71.6,3.8,107.4c1.1,23.8,2,47.6,6.8,71C252.6,817.3,253.1,819.9,255.6,822.6z"/>
	<path class="st0" d="M741.2,384.2c-26.8-0.3-46.1-14-61.3-34.8c-6.3-8.6-10.9-18.2-15.3-27.9c-3.8-8.4-2.2-15.8,2.5-23.1
		c5.1-7.8,12.4-13.5,20.3-18.2c21.5-12.9,44.9-21.2,69.8-23.8c24.3-2.6,41.5,6.9,48.1,32.4c4.1,15.7,7.4,31.9,3,47.8
		c-6.8,24.8-25.1,38.2-48.8,45.3C753.5,383.7,747.4,384.4,741.2,384.2z"/>
	<polygon class="st1" points="1019.4,666.4 1019.7,666.3 1019.6,666.6 	"/>
</g>
</svg>
